<svg width="97" height="117" viewBox="0 0 97 117" fill="none" xmlns="http://www.w3.org/2000/svg">
<g id="Frame 964">
<g id="Union">
<path d="M54.7692 45.5934C55.9248 45.5934 56.8639 44.6736 56.8639 43.5387C56.8639 42.4049 55.9248 41.4862 54.7692 41.4862C53.6129 41.4862 52.6738 42.4044 52.6738 43.5387C52.6738 44.6736 53.6124 45.5934 54.7692 45.5934Z" fill="#322E2B"/>
<path d="M69.9179 43.5387C69.9179 44.6736 68.98 45.5934 67.8232 45.5934C66.6664 45.5934 65.7295 44.6736 65.7295 43.5387C65.7295 42.4043 66.6664 41.4862 67.8232 41.4862C68.9794 41.4862 69.9179 42.4049 69.9179 43.5387Z" fill="#322E2B"/>
<path d="M61.2963 45.5934C62.4526 45.5934 63.3911 44.6736 63.3911 43.5387C63.3911 42.4049 62.4526 41.4862 61.2963 41.4862C60.1379 41.4862 59.2005 42.4043 59.2005 43.5387C59.2005 44.6736 60.1384 45.5934 61.2963 45.5934Z" fill="#322E2B"/>
<path fill-rule="evenodd" clip-rule="evenodd" d="M21.8278 42.7136C21.8278 39.2815 24.6567 36.5508 28.0845 36.5508H69.7301C73.1584 36.5508 75.9856 39.2819 75.9856 42.7136C75.9856 42.7275 75.9855 42.7413 75.9851 42.7551V48.7357L75.9849 48.7603V74.633C75.9849 78.0629 73.1572 80.7936 69.7293 80.7936H28.0838C24.6566 80.7936 21.8271 78.0635 21.8276 74.633V48.7353L21.8278 48.7107V42.7136ZM72.9849 50.2357H24.8276V74.633C24.8273 76.3492 26.2557 77.7936 28.0838 77.7936H69.7293C71.5569 77.7936 72.9849 76.35 72.9849 74.633V50.2357ZM72.9851 42.7136V47.2353H24.8278V42.7136C24.8278 40.9944 26.257 39.5508 28.0845 39.5508H69.7301C71.5451 39.5508 72.9668 40.9749 72.9855 42.6795C72.9852 42.6909 72.9851 42.7022 72.9851 42.7136Z" fill="#322E2B"/>
</g>
</g>
</svg>
